<svg width="180" height="151" fill="none" xmlns="http://www.w3.org/2000/svg"><path d="M43.221 63.586a.337.337 0 0 1-.338-.342.4.4 0 0 1 .027-.123c2.002-5.383 3.585-10.93 5.1-16.285.406-1.435.825-2.91 1.244-4.345 1.042-3.58 2.314-7.788 3.87-11.805 1.081-2.787 3.95-4.03 6.56-4.973.42-.15.839-.3 1.245-.45 1.204-.424 2.435-.862 3.517-1.38 3.26-1.6 6.575-3.211 9.78-4.77 1.353-.655 2.72-1.324 4.072-1.98 5.384-2.623 11.134-5.424 16.897-8.32 3.246-1.6 9.036-4.031 11.809-2.269 1.028.656 1.529 1.804 1.502 3.43a.337.337 0 0 1-.338.341.346.346 0 0 1-.339-.341c.027-1.38-.365-2.31-1.19-2.842-2.584-1.653-8.63 1.065-11.12 2.309a1517.567 1517.567 0 0 1-16.91 8.32c-1.352.656-2.718 1.326-4.071 1.981-3.206 1.558-6.52 3.17-9.78 4.769-1.11.546-2.382.983-3.6 1.42-.419.15-.824.287-1.244.438-2.584.929-5.18 2.05-6.168 4.577-1.543 3.99-2.814 8.184-3.856 11.75-.42 1.434-.839 2.91-1.244 4.344-1.529 5.37-3.112 10.93-5.114 16.327a.326.326 0 0 1-.311.219z" fill="#909090"/><path d="M36.93 61.004c-.026 0-.053 0-.08-.014-.176-.04-.284-.232-.244-.41a506.374 506.374 0 0 1 2.828-10.438 1391.788 1391.788 0 0 1 5.492-19.087c.094-.341.203-.683.297-.997.081-.26.15-.506.217-.752a8.784 8.784 0 0 1 4.477-5.355c3.342-1.667 6.683-3.47 9.916-5.22a616.777 616.777 0 0 1 7.36-3.92c.067-.042.135-.07.216-.11.067-.041.135-.068.216-.11C74.7 10.93 83.115 6.737 91.813 3.43a95.352 95.352 0 0 1 6.683-2.295 17.7 17.7 0 0 0 1.028-.328c2.029-.67 4.315-1.421 6.29-.027 1.069.751 1.907 1.967 2.381 3.443.649 2.063.5 4.18.284 5.793a49.509 49.509 0 0 1-.392 2.459c-.081.423-.149.847-.217 1.257-.081.437-.149.86-.23 1.27a.322.322 0 0 1-.392.274.326.326 0 0 1-.271-.396c.068-.41.149-.834.23-1.271.068-.41.149-.82.217-1.257a50.93 50.93 0 0 0 .392-2.432c.298-2.295.217-3.99-.257-5.492-.419-1.34-1.177-2.432-2.124-3.088-1.704-1.189-3.733-.52-5.695.123-.352.109-.703.232-1.041.328-2.057.614-4.221 1.366-6.643 2.281-8.67 3.293-17.058 7.474-24.133 11.122-.068.04-.135.068-.217.109-.067.041-.135.068-.203.11a413.165 413.165 0 0 0-7.345 3.907c-3.247 1.749-6.588 3.552-9.943 5.233a8.102 8.102 0 0 0-4.126 4.932c-.067.246-.149.492-.216.751-.095.315-.19.656-.298.998-.92 3.115-3.287 11.19-5.492 19.086a508.923 508.923 0 0 0-2.828 10.425.33.33 0 0 1-.324.26zM131.882 30.358c-.027 0-.054 0-.081-.013-5.939-1.421-11.999-2.787-17.857-4.1l-.203-.04-8.076-1.926a.353.353 0 0 1-.257-.41.35.35 0 0 1 .406-.26l8.063 1.926.203.041c5.857 1.326 11.917 2.678 17.87 4.1a.353.353 0 0 1 .257.41.333.333 0 0 1-.325.272z" fill="#909090"/><path d="M83.696 30.891a.342.342 0 0 1-.311-.205.354.354 0 0 1 .189-.45 415.88 415.88 0 0 1 16.585-6.49.335.335 0 0 1 .433.205.34.34 0 0 1-.203.437c-6.142 2.268-11.553 4.386-16.558 6.476a.475.475 0 0 1-.135.027zM94.37 20.562h-.068c-4.005-.806-9.565-1.899-14.462-2.883l-.879-.177a.348.348 0 0 1-.27-.396c.04-.192.216-.301.392-.274l.88.178c4.896.97 10.456 2.077 14.46 2.883.19.04.298.218.27.396a.322.322 0 0 1-.324.273z" fill="#909090"/><path d="M100.673 83.534h-.148c-3.585-.028-6.67-1.08-10.24-2.296-.555-.19-1.11-.382-1.692-.573a518.74 518.74 0 0 1-7.048-2.405 455.051 455.051 0 0 1-7.17-2.555 707.407 707.407 0 0 1-9.239-3.43c-6.777-2.568-13.988-5.423-22.037-8.702l-6.303-2.596a2701.072 2701.072 0 0 1-20.59-8.621c-1.393-.588-2.8-1.175-4.193-1.763l-6.9-2.91c-1.325-.56-4.085-1.722-3.855-4.358.014-.206.054-.397.108-.588.082-.26.176-.506.312-.738.825-1.462 2.218-2.172 3.57-2.869 2.882-1.462 5.75-2.938 8.631-4.4 2.841-1.448 5.669-2.882 8.51-4.33a423.455 423.455 0 0 0 8.67-4.577c7.78-4.168 15.138-8.116 23.58-11.08 2.76-.97 6.006-1.873 9.117-1.176l4.086.97a.353.353 0 0 1 .257.41.35.35 0 0 1-.406.26l-4.085-.97c-2.95-.656-6.075.204-8.753 1.147-8.387 2.951-15.72 6.886-23.47 11.04-2.814 1.503-5.71 3.06-8.685 4.577-2.841 1.448-5.668 2.896-8.51 4.33-2.88 1.463-5.749 2.938-8.63 4.4-1.258.642-2.57 1.312-3.287 2.596-.108.191-.19.383-.257.601-.04.137-.068.3-.081.451-.163 1.886 1.555 2.883 3.436 3.675l6.899 2.91c1.393.588 2.8 1.175 4.193 1.763 8.51 3.58 15.233 6.408 20.59 8.621l6.29 2.582c8.049 3.28 15.26 6.135 22.023 8.704a707.428 707.428 0 0 0 9.24 3.429c2.543.915 4.883 1.762 7.17 2.555 2.231.779 4.531 1.571 7.034 2.404.581.192 1.15.383 1.69.574 3.64 1.244 6.643 2.268 10.173 2.268 3.45 0 7.387-.97 12.906-3.689 9.064-4.454 18.506-8.511 27.637-12.446 10.132-4.359 20.603-8.867 30.586-13.923 1.921-.97 4.113-2.076 5.263-4.167.487-.874.676-1.844.554-2.705a3.83 3.83 0 0 0-.122-.546c-.581-1.982-2.664-2.801-4.761-3.457l-.393-.123c-6.669-2.118-13.568-4.304-20.413-6.244a395.402 395.402 0 0 0-13.203-3.511c-.176-.041-.298-.232-.243-.41.04-.178.229-.3.405-.246a443.058 443.058 0 0 1 13.23 3.525c6.859 1.94 13.758 4.14 20.441 6.257l.392.123c2.259.724 4.518 1.613 5.195 3.922.067.218.108.437.149.642.148 1.038-.068 2.117-.636 3.142-1.258 2.268-3.544 3.43-5.56 4.44-10.011 5.056-20.495 9.578-30.627 13.937-9.118 3.92-18.546 7.978-27.596 12.432-5.276 2.555-9.362 3.717-13.204 3.717z" fill="#909090"/><path d="M100.363 96.377c-3.423 0-7.035-.875-12.46-2.596C60.78 85.214 23.62 69.639 8.902 63.34a14.858 14.858 0 0 1-5.844-4.51 14.849 14.849 0 0 1-2.922-6.803c-.501-3.266.392-7.501 1.528-9.988a.328.328 0 0 1 .447-.164.334.334 0 0 1 .162.451C1.218 44.65.338 48.803.812 51.905c.73 4.768 3.937 8.908 8.36 10.807 14.705 6.298 51.838 21.86 78.934 30.413 11.377 3.593 14.421 3.511 25.054-.71 6.006-2.391 11.918-5.233 17.64-7.993 5.316-2.555 10.809-5.206 16.423-7.515.69-.286 1.623-.655 2.705-1.093 6.534-2.623 20.143-8.074 25.243-11.79 1.556-1.135 4.166-3.95 4.139-10.056-.013-3.074-.676-5.465-1.812-8.553a.34.34 0 0 1 .203-.437.334.334 0 0 1 .432.205c1.164 3.17 1.84 5.615 1.854 8.798.027 6.422-2.76 9.414-4.424 10.616-5.181 3.758-18.33 9.031-25.391 11.873-1.083.437-2.016.806-2.706 1.093-5.6 2.296-11.079 4.946-16.396 7.501-5.735 2.76-11.66 5.615-17.694 8.006-5.614 2.214-9.199 3.307-13.013 3.307z" fill="#909090"/><path d="M166.663 56.058a.356.356 0 0 1-.162-.041c-9.294-5-51.514-16.56-82.344-25.003l-.54-.15a.359.359 0 0 1-.244-.424.355.355 0 0 1 .42-.246l.54.15c30.857 8.444 73.131 20.016 82.492 25.058.163.082.23.3.136.464a.316.316 0 0 1-.298.192zM74.917 28.486c-.027 0-.054 0-.095-.013-1.583-.438-3.098-.861-4.586-1.271a13.651 13.651 0 0 0-.717-.178 27.202 27.202 0 0 0-9.686-.642c-.189.028-.351-.11-.378-.3a.34.34 0 0 1 .297-.383 28.17 28.17 0 0 1 9.916.656c.244.055.487.123.73.191 1.489.41 3.017.834 4.587 1.27a.359.359 0 0 1 .243.424.307.307 0 0 1-.311.246zM12.148 50.62a.336.336 0 0 1-.298-.177c-.094-.164-.027-.369.136-.465C16.26 47.67 20.792 44.91 25.595 42c6.398-3.894 13.013-7.91 19.507-11.162a.354.354 0 0 1 .46.15.361.361 0 0 1-.15.465c-6.466 3.238-13.08 7.255-19.452 11.135-4.803 2.924-9.348 5.683-13.636 7.992a.462.462 0 0 1-.176.041zM103.57 151c-2.949 0-5.871-.574-8.658-1.722-9.902-4.085-20.008-8.02-29.788-11.818-9.875-3.839-20.089-7.815-30.086-11.941-4.856-2.009-10.146-7.747-11.796-12.802-3.693-11.327-6.575-21.587-9.632-32.463a1874.022 1874.022 0 0 0-4.897-17.133.346.346 0 0 1 .23-.423.341.341 0 0 1 .42.232c1.731 5.93 3.34 11.613 4.883 17.12 3.057 10.861 5.939 21.122 9.632 32.435 1.596 4.891 6.71 10.451 11.417 12.392 9.997 4.126 20.197 8.102 30.072 11.941 9.78 3.812 19.9 7.747 29.802 11.832 5.56 2.295 11.715 2.227 17.329-.192 6.25-2.678 12.445-4.973 18.438-7.173 7.332-2.705 14.921-5.506 22.659-9.058 2.706-1.243 5.411-5.998 6.237-8.799 5.465-18.526 9.09-35.646 12.12-57.233a.334.334 0 1 1 .663.096c-3.044 21.628-6.669 38.775-12.148 57.329-.879 3.005-3.666 7.883-6.601 9.222-7.752 3.566-15.354 6.367-22.7 9.072-5.979 2.2-12.175 4.481-18.397 7.159-2.977 1.284-6.101 1.927-9.199 1.927z" fill="#909090"/><path d="M113.08 140.029c-.839 0-1.637-.233-2.232-.902-.771-.888-.758-2.132-.677-3.32.853-12.556 2.043-28.856 3.761-43.516a.347.347 0 0 1 .379-.3.34.34 0 0 1 .297.382c-1.704 14.633-2.908 30.932-3.747 43.488-.067 1.052-.094 2.132.514 2.815.717.82 2.002.888 4.072.205l28.408-9.414c2.489-.819 5.303-1.762 7.319-3.702 1.163-1.134 3.571-10.452 6.114-23.746 2.408-12.542 4.302-25.262 4.627-30.946a.354.354 0 0 1 .352-.328.355.355 0 0 1 .324.355c-.324 5.711-2.232 18.472-4.64 31.042-1.271 6.654-4.437 22.297-6.317 24.115-2.124 2.049-5.019 3.005-7.576 3.852l-28.408 9.414c-.758.246-1.691.506-2.57.506zM94.18 141.299c-.933 0-2.137-.423-3.652-1.256-12.04-6.709-39.271-16.601-51.121-20.262-2.165-.67-4.857-1.503-6.358-3.607-.893-1.243-1.245-2.787-1.57-4.14-1.217-5.192-3.611-13.813-5.938-22.147-2.327-8.348-4.735-16.983-5.952-22.175a.342.342 0 0 1 .257-.41.338.338 0 0 1 .405.26c1.218 5.178 3.612 13.813 5.94 22.147 2.326 8.348 4.734 16.983 5.951 22.175.298 1.298.65 2.773 1.461 3.907 1.367 1.913 3.842 2.678 6.02 3.348C51.501 122.8 78.8 132.733 90.88 139.455c2.042 1.134 3.45 1.448 4.193.943 1.11-.765.785-3.43.514-5.575-.04-.355-.08-.683-.121-1.011-1.367-12.31-3.18-27.912-5.114-39.457-.027-.192.095-.37.27-.397.19-.027.366.096.393.274 1.934 11.558 3.747 27.188 5.114 39.498.04.315.08.656.121.998.311 2.459.65 5.233-.798 6.23a2.42 2.42 0 0 1-1.272.341zM104.002 34.238c-.027 0-.054 0-.068-.014-2.002-.45-3.057-.696-5.127-1.502a.36.36 0 0 1-.216-.356c.31-3.101.852-5.957 1.352-8.389.041-.19.217-.3.406-.26.19.042.298.22.257.41-.473 2.35-1 5.083-1.312 8.048 1.759.67 2.719.916 4.437 1.312.704-3.976 1.204-6.845 1.691-9.605l.203-1.134.149-.875a.322.322 0 0 1 .392-.273c.19.027.311.205.271.396l-.149.875-.203 1.134c-.501 2.842-1.015 5.793-1.745 9.96a.287.287 0 0 1-.149.218.337.337 0 0 1-.189.055zM101.566 17.639h-.054a.343.343 0 0 1-.284-.397c.609-3.894.676-7.022.189-10.137a.35.35 0 0 1 .284-.397c.19-.027.352.096.393.287.5 3.184.432 6.38-.19 10.357a.348.348 0 0 1-.338.287z" fill="#909090"/><path d="M81.668 78.274a.348.348 0 0 1-.338-.287c-.243-.97-1.014-3.976-2.002-7.76-2.178-8.43-5.465-21.178-6.777-26.588-.623-2.569-1.15-5.506.351-7.706.947-1.38 2.435-2.131 4.14-2.897a336.208 336.208 0 0 1 6.534-2.814 415.776 415.776 0 0 1 16.585-6.49c.581-.218 1.177-.437 1.758-.656l.582-.205 3.49-1.27c5.844-2.09 11.945-4.208 16.856-5.902.013 0 .027-.014.04-.014.068-.027.122-.041.19-.069.338-.109.676-.204 1.001-.3.433-.123.852-.232 1.271-.396a.47.47 0 0 1 .406.013c.744.342 2.138 3.006 6.439 14.961a895.332 895.332 0 0 1 1.881 5.26c.96 2.692 1.867 5.22 2.624 7.269.122.164.798.56.988.615.378.109.852.232 1.461.382.717.178 1.596.396 2.665.683a.34.34 0 0 0 .365-.11.351.351 0 0 0 .081-.368c-.582-1.844-2.043-6.408-3.788-11.832a2524.18 2524.18 0 0 0-4.87-14.974 56.903 56.903 0 0 0-.487-1.462c-.094-.273-.176-.547-.27-.806-.433-1.284-.92-2.733-1.759-3.908-.879-1.23-2.935-2.09-4.491-1.871-5.086.751-9.929 2.718-14.61 4.631l-2.232.902-2.313.943-5.763 2.35c-1.515.614-3.017 1.23-4.532 1.844-.893.369-1.786.724-2.678 1.093-.257.11-.528.219-.785.314-.257.11-.514.205-.771.315-2.503 1.024-5.005 2.035-7.508 3.06l-10.39 4.222a85.2 85.2 0 0 1-1.284.519c-.433.178-.853.355-1.286.52-2.462.997-4.775 2.062-5.965 4.07-1.529 2.57-.839 5.862.013 9.018 1.42 5.246 2.8 10.848 4.153 16.259 1.367 5.492 2.773 11.162 4.18 16.45a.343.343 0 0 1-.243.423c-.176.055-.365-.055-.42-.246-1.42-5.287-2.827-10.971-4.193-16.463-1.34-5.41-2.733-11.013-4.126-16.232-.88-3.292-1.61-6.75.068-9.55 1.42-2.364 4.234-3.511 6.29-4.358.433-.178.852-.342 1.285-.52.433-.177.866-.355 1.285-.519l10.39-4.221c2.502-1.025 5.005-2.036 7.507-3.06.257-.11.514-.206.772-.315.257-.11.527-.205.784-.314.893-.37 1.786-.724 2.679-1.093 1.515-.615 3.016-1.23 4.531-1.845l5.763-2.35 2.313-.943 2.233-.901c4.721-1.927 9.591-3.908 14.772-4.673 1.799-.26 4.112.697 5.14 2.145.893 1.27 1.407 2.774 1.854 4.099.081.26.176.533.27.806.163.478.325.97.487 1.476 1.258 3.811 2.895 8.84 4.87 14.974 1.745 5.424 3.206 9.987 3.788 11.832.122.369.027.765-.244 1.052-.27.287-.662.396-1.041.287-1.055-.3-1.935-.506-2.652-.683a46.233 46.233 0 0 1-1.501-.383c-.176-.055-1.258-.574-1.421-1.011-.757-2.063-1.664-4.604-2.638-7.296a604.887 604.887 0 0 0-1.88-5.246c-1.014-2.815-2.516-6.914-3.747-9.947-1.515-3.716-2.11-4.454-2.286-4.604-.42.164-.852.287-1.258.396-.325.082-.65.178-.974.287-.068.014-.109.041-.163.055h-.013c-.014.013-.041.013-.054.013a1514.756 1514.756 0 0 0-16.842 5.903c-1.164.41-2.341.847-3.49 1.257l-.582.204c-.595.22-1.177.424-1.759.643-6.141 2.268-11.552 4.385-16.558 6.476a293.62 293.62 0 0 0-6.52 2.8c-1.61.725-3.003 1.422-3.856 2.651-1.339 1.968-.852 4.618-.243 7.16 1.299 5.41 4.6 18.144 6.777 26.573.988 3.826 1.772 6.859 2.002 7.802 0 .027.014.054.014.082.014.218-.135.369-.325.369z" fill="#909090"/><path d="M133.94 17.064a.353.353 0 0 1-.298-.177c-1.786-3.348-4.83-2.842-10.565-.547a.328.328 0 0 1-.433-.19.333.333 0 0 1 .189-.438c5.979-2.391 9.388-2.924 11.404.847.095.164.027.369-.135.464a.355.355 0 0 1-.162.041zM65.258 72.29a.346.346 0 0 1-.325-.26C62.106 60.498 57.601 47 52.217 34.034a.36.36 0 0 1 .176-.451.354.354 0 0 1 .447.177c5.397 12.994 9.915 26.533 12.743 38.106.04.177-.068.368-.244.41-.027.013-.054.013-.081.013zM69.6 30.768a.34.34 0 0 1-.338-.314c-.04-.67-.027-1.298 0-1.9.028-.614.041-1.188 0-1.83a.339.339 0 0 1 .312-.37.337.337 0 0 1 .365.315c.04.67.027 1.298 0 1.9-.027.614-.04 1.188 0 1.83a.339.339 0 0 1-.311.369H69.6zM40.517 113.687a.35.35 0 0 1-.325-.232c-2.394-7.473-3.733-15.357-5.045-22.98-.663-3.84-1.34-7.816-2.138-11.655a.346.346 0 0 1 .257-.41.342.342 0 0 1 .406.26c.812 3.853 1.488 7.829 2.151 11.681 1.299 7.597 2.651 15.453 5.019 22.885a.338.338 0 0 1-.217.424c-.04.014-.067.027-.108.027zM54.625 118.66c-.149 0-.298-.109-.325-.259a629.01 629.01 0 0 1-6.967-34.977c-.027-.19.095-.369.27-.396.19-.027.366.096.393.273a628.216 628.216 0 0 0 6.953 34.95.341.341 0 0 1-.256.409c-.014-.013-.041 0-.068 0zM68.6 124.193a.347.347 0 0 1-.34-.286c-.743-4.413-1.771-9.018-2.867-13.895-1.502-6.736-3.07-13.704-3.815-20.166a.34.34 0 0 1 .298-.383c.19-.014.352.11.379.3.744 6.422 2.3 13.363 3.8 20.085 1.097 4.891 2.125 9.509 2.869 13.936.027.191-.095.369-.27.396-.028.014-.041.013-.055.013zM82.669 128.88a.322.322 0 0 1-.325-.273c-2.137-10.821-3.368-20.904-4.667-31.575l-.108-.942a.34.34 0 0 1 .297-.383c.19-.027.352.11.38.3l.108.943c1.298 10.657 2.53 20.727 4.653 31.52a.324.324 0 0 1-.27.396c-.028 0-.041.014-.068.014z" fill="#909090"/><path d="M86.916 113.81a.5.5 0 0 1-.135-.027l-57.763-25.29c-.176-.068-.244-.273-.176-.45.067-.179.27-.247.446-.179l57.764 25.29c.175.068.243.273.175.451a.32.32 0 0 1-.31.205zM117.124 115.299a.365.365 0 0 1-.325-.232.36.36 0 0 1 .217-.437 520.917 520.917 0 0 0 35.754-13.39.348.348 0 0 1 .446.192.352.352 0 0 1-.189.45 524.789 524.789 0 0 1-35.795 13.417h-.108z" fill="#909090"/><path d="M121.615 130h-.028a.338.338 0 0 1-.311-.368l2.895-36.316a.34.34 0 1 1 .677.055l-2.895 36.315a.34.34 0 0 1-.338.314zM134.939 125.833h-.027a.338.338 0 0 1-.311-.369l2.841-36.56a.337.337 0 0 1 .365-.315.338.338 0 0 1 .311.369l-2.841 36.561a.34.34 0 0 1-.338.314zM145.599 123.306h-.054a.343.343 0 0 1-.284-.396l6.06-39.567a.343.343 0 0 1 .677.11l-6.061 39.566a.348.348 0 0 1-.338.287zM81.424 61.728h-.027a.338.338 0 0 1-.311-.37c.257-4.098.757-7.678 1.244-11.134.487-3.443.988-7.01 1.231-11.08a.337.337 0 0 1 .366-.315c.19.014.324.178.31.369-.256 4.099-.757 7.678-1.244 11.135-.487 3.443-.987 7.009-1.23 11.08 0 .178-.15.315-.339.315zM90.759 76.156h-.068a.348.348 0 0 1-.27-.396c.947-5.056 2.3-11.354 3.611-17.434 1.313-6.08 2.665-12.365 3.612-17.42.041-.191.217-.314.393-.273.19.04.297.218.27.396-.947 5.055-2.3 11.354-3.612 17.434-1.312 6.08-2.665 12.364-3.611 17.42a.335.335 0 0 1-.325.273zM106.192 78.779c-.04 0-.081 0-.108-.014a.34.34 0 0 1-.203-.437c1.245-3.62 2.936-10.233 4.559-16.614 1.488-5.847 2.895-11.367 3.991-14.755.054-.178.243-.274.433-.219.176.055.27.246.216.437-1.082 3.375-2.489 8.88-3.977 14.715-1.637 6.408-3.314 13.034-4.586 16.668a.359.359 0 0 1-.325.219zM121.614 74.448c-.027 0-.054 0-.081-.013-.176-.041-.284-.233-.244-.424.041-.15 3.923-15.152 6.845-22.762a.328.328 0 0 1 .433-.191c.176.068.257.26.189.437-2.908 7.569-6.79 22.53-6.831 22.68a.318.318 0 0 1-.311.273z" fill="#909090"/><path d="M136.36 64.324c-.027 0-.054 0-.081-.014-17.762-4.672-39.867-10.479-59.752-17.433a.34.34 0 0 1-.203-.438.335.335 0 0 1 .433-.204c19.845 6.94 41.935 12.747 59.684 17.42.176.04.284.232.243.41a.345.345 0 0 1-.324.259zM32.048 58.722a.336.336 0 0 1-.297-.178c-.907-1.762-1.88-3.388-2.814-4.96-.934-1.584-1.908-3.224-2.827-4.986a.348.348 0 0 1 .149-.465.341.341 0 0 1 .46.15c.906 1.763 1.88 3.39 2.813 4.96.934 1.585 1.908 3.225 2.827 4.987a.348.348 0 0 1-.148.465.67.67 0 0 1-.163.027zM55.464 62.274a.33.33 0 0 1-.325-.26c-1.732-6.721-3.247-12.036-5.871-19.318a.34.34 0 0 1 .203-.438.335.335 0 0 1 .433.205c2.638 7.31 4.166 12.638 5.898 19.388.04.177-.068.369-.244.41-.04.013-.067.013-.094.013zM39.717 48.776a.334.334 0 0 1-.311-.219 43.913 43.913 0 0 0-1.19-2.61c-.393-.82-.812-1.666-1.205-2.65a.354.354 0 0 1 .19-.45.348.348 0 0 1 .446.19c.393.957.799 1.804 1.19 2.61.393.82.813 1.667 1.205 2.65a.354.354 0 0 1-.19.452.396.396 0 0 1-.135.027z" fill="#909090"/><path d="M26.515 54.897a.334.334 0 0 1-.312-.219.334.334 0 0 1 .19-.437c2.814-1.12 7.142-3.211 10.606-4.878.92-.45 1.799-.86 2.57-1.23a.328.328 0 0 1 .446.164.334.334 0 0 1-.162.451c-.785.37-1.65.793-2.57 1.23-3.477 1.68-7.806 3.757-10.647 4.905-.04.014-.08.014-.121.014zM48.89 45.36a.321.321 0 0 1-.311-.219.34.34 0 0 1 .203-.437l6.763-2.555a.335.335 0 0 1 .433.205.34.34 0 0 1-.203.437l-6.764 2.555c-.04.014-.08.014-.121.014z" fill="#909090"/></svg>